<?xml version="1.0" encoding="UTF-8" standalone="no"?>
<!-- Created with Inkscape (http://www.inkscape.org/) -->

<svg
   xmlns:dc="http://purl.org/dc/elements/1.1/"
   xmlns:cc="http://creativecommons.org/ns#"
   xmlns:rdf="http://www.w3.org/1999/02/22-rdf-syntax-ns#"
   xmlns:svg="http://www.w3.org/2000/svg"
   xmlns="http://www.w3.org/2000/svg"
   xmlns:xlink="http://www.w3.org/1999/xlink"
   xmlns:sodipodi="http://sodipodi.sourceforge.net/DTD/sodipodi-0.dtd"
   xmlns:inkscape="http://www.inkscape.org/namespaces/inkscape"
   width="171.96411mm"
   height="110.09762mm"
   viewBox="0 0 171.96412 110.09762"
   version="1.1"
   id="svg7008"
   inkscape:version="0.92.1 r15371"
   sodipodi:docname="smart-garden-logo.svg"
   inkscape:export-filename="C:\Users\Emmi Isenstierna\Downloads\smart-garden-logo.png"
   inkscape:export-xdpi="400"
   inkscape:export-ydpi="400">
  <defs
     id="defs7002">
    <linearGradient
       inkscape:collect="always"
       xlink:href="#linearGradient6607"
       id="linearGradient6119"
       gradientUnits="userSpaceOnUse"
       gradientTransform="matrix(1.9826977,0,0,1.9826977,-15.51581,-97.638832)"
       x1="28.320499"
       y1="182.82574"
       x2="28.332682"
       y2="180.03079" />
    <linearGradient
       inkscape:collect="always"
       id="linearGradient6607">
      <stop
         style="stop-color:#00b080;stop-opacity:1;"
         offset="0"
         id="stop6603" />
      <stop
         style="stop-color:#00b0ab;stop-opacity:0.65098041"
         offset="1"
         id="stop6605" />
    </linearGradient>
    <linearGradient
       inkscape:collect="always"
       xlink:href="#linearGradient6607"
       id="linearGradient4517"
       gradientUnits="userSpaceOnUse"
       gradientTransform="matrix(53.993201,0,0,58.59222,-1262.4368,-10319.21)"
       x1="28.320499"
       y1="182.82574"
       x2="28.332682"
       y2="180.03079" />
  </defs>
  <sodipodi:namedview
     id="base"
     pagecolor="#ffffff"
     bordercolor="#666666"
     borderopacity="1.0"
     inkscape:pageopacity="0.0"
     inkscape:pageshadow="2"
     inkscape:zoom="0.90509668"
     inkscape:cx="230.63877"
     inkscape:cy="180.5074"
     inkscape:document-units="mm"
     inkscape:current-layer="g6105"
     showgrid="false"
     fit-margin-right="0"
     fit-margin-top="0"
     fit-margin-left="0"
     fit-margin-bottom="0"
     inkscape:window-width="1920"
     inkscape:window-height="1017"
     inkscape:window-x="-8"
     inkscape:window-y="-8"
     inkscape:window-maximized="1"
     inkscape:snap-page="true"
     showborder="true"
     inkscape:snap-nodes="false"
     inkscape:snap-global="false" />
  <metadata
     id="metadata7005">
    <rdf:RDF>
      <cc:Work
         rdf:about="">
        <dc:format>image/svg+xml</dc:format>
        <dc:type
           rdf:resource="http://purl.org/dc/dcmitype/StillImage" />
        <dc:title />
      </cc:Work>
    </rdf:RDF>
  </metadata>
  <g
     inkscape:label="Layer 1"
     inkscape:groupmode="layer"
     id="layer1"
     transform="translate(193.44626,-82.64874)">
    <rect
       style="opacity:1;fill:none;fill-opacity:1;fill-rule:nonzero;stroke:none;stroke-width:0;stroke-linecap:butt;stroke-linejoin:round;stroke-miterlimit:4;stroke-dasharray:none;stroke-dashoffset:0;stroke-opacity:1;paint-order:normal"
       id="rect7595"
       width="208.64285"
       height="208.64285"
       x="-215.78563"
       y="42.384052"
       inkscape:export-xdpi="400"
       inkscape:export-ydpi="400" />
    <g
       id="g837">
      <g
         inkscape:export-ydpi="400"
         inkscape:export-xdpi="400"
         transform="matrix(7.5057743,0,0,7.5057743,-413.18936,-1575.6567)"
         id="g6968">
        <g
           id="g6129"
           inkscape:export-xdpi="400"
           inkscape:export-ydpi="400"
           transform="translate(-0.33072917,-15.478125)">
          <g
             transform="translate(0,-25.631148)"
             id="g6105">
            <g
               aria-label="SMART"
               transform="scale(0.90351409,1.1067896)"
               style="font-style:normal;font-variant:normal;font-weight:normal;font-stretch:normal;font-size:5.68767977px;line-height:1.25;font-family:Montserrat;-inkscape-font-specification:'Montserrat, weight=251';font-variant-ligatures:normal;font-variant-caps:normal;font-variant-numeric:normal;font-feature-settings:normal;text-align:start;letter-spacing:-0.54032958px;word-spacing:0px;writing-mode:lr-tb;text-anchor:start;fill:#429171;fill-opacity:1;stroke:#000000;stroke-width:0;stroke-miterlimit:4;stroke-dasharray:none"
               id="text6091">
              <path
                 d="m 34.794419,243.73216 q -0.432263,0 -0.824713,-0.15357 -0.386762,-0.15356 -0.597206,-0.39813 l 0.102378,-0.13651 q 0.199069,0.22751 0.551705,0.37539 0.358324,0.14219 0.762149,0.14219 0.597206,0 0.898653,-0.23319 0.307135,-0.23889 0.307135,-0.60858 0,-0.28439 -0.159255,-0.45502 -0.159255,-0.17632 -0.39245,-0.26163 -0.233195,-0.091 -0.63702,-0.1877 -0.432264,-0.10806 -0.693897,-0.21044 -0.261633,-0.10238 -0.443639,-0.31282 -0.182006,-0.21045 -0.182006,-0.56308 0,-0.2787 0.14788,-0.51189 0.147879,-0.2332 0.449326,-0.3697 0.307135,-0.14219 0.76215,-0.14219 0.324197,0 0.63702,0.0967 0.31851,0.0967 0.540329,0.26732 l -0.08532,0.15356 q -0.233195,-0.17063 -0.523266,-0.25594 -0.284384,-0.091 -0.563081,-0.091 -0.580143,0 -0.88159,0.24457 -0.295759,0.23888 -0.295759,0.60858 0,0.29007 0.159255,0.46639 0.164942,0.17063 0.398137,0.26163 0.238883,0.091 0.63702,0.18769 0.432264,0.10807 0.693897,0.21045 0.261633,0.0967 0.437952,0.30713 0.182005,0.20476 0.182005,0.55171 0,0.27869 -0.153567,0.51189 -0.14788,0.23319 -0.460702,0.3697 -0.312822,0.1365 -0.773525,0.1365 z"
                 style="font-style:normal;font-variant:normal;font-stretch:normal;font-size:5.68767977px;font-family:Montserrat;-inkscape-font-specification:'Montserrat, weight=251';font-variant-ligatures:normal;font-variant-caps:normal;font-variant-numeric:normal;font-feature-settings:normal;text-align:start;letter-spacing:-0.54032958px;writing-mode:lr-tb;text-anchor:start;fill:#429171;fill-opacity:1;stroke:#000000;stroke-width:0;stroke-miterlimit:4;stroke-dasharray:none"
                 id="path839" />
              <path
                 d="m 40.473656,243.70941 -0.0057,-3.58892 -1.746118,3.03722 h -0.102378 l -1.751806,-3.02585 v 3.57755 h -0.187693 v -3.98137 h 0.159255 l 1.831433,3.1851 1.825745,-3.1851 h 0.159255 l 0.0057,3.98137 z"
                 style="font-style:normal;font-variant:normal;font-stretch:normal;font-size:5.68767977px;font-family:Montserrat;-inkscape-font-specification:'Montserrat, weight=251';font-variant-ligatures:normal;font-variant-caps:normal;font-variant-numeric:normal;font-feature-settings:normal;text-align:start;letter-spacing:-0.54032958px;writing-mode:lr-tb;text-anchor:start;fill:#429171;fill-opacity:1;stroke:#000000;stroke-width:0;stroke-miterlimit:4;stroke-dasharray:none"
                 id="path841" />
              <path
                 d="M 44.011838,242.54344 H 41.6287 l -0.534642,1.16597 h -0.210444 l 1.842808,-3.98137 h 0.187694 l 1.842808,3.98137 H 44.54648 Z m -0.07394,-0.16495 -1.114785,-2.42863 -1.120473,2.42863 z"
                 style="font-style:normal;font-variant:normal;font-stretch:normal;font-size:5.68767977px;font-family:Montserrat;-inkscape-font-specification:'Montserrat, weight=251';font-variant-ligatures:normal;font-variant-caps:normal;font-variant-numeric:normal;font-feature-settings:normal;text-align:start;letter-spacing:-0.54032958px;writing-mode:lr-tb;text-anchor:start;fill:#429171;fill-opacity:1;stroke:#000000;stroke-width:0;stroke-miterlimit:4;stroke-dasharray:none"
                 id="path843" />
              <path
                 style="font-style:normal;font-variant:normal;font-stretch:normal;font-size:5.68767977px;font-family:Montserrat;-inkscape-font-specification:'Montserrat, weight=251';font-variant-ligatures:normal;font-variant-caps:normal;font-variant-numeric:normal;font-feature-settings:normal;text-align:start;letter-spacing:-0.54032958px;writing-mode:lr-tb;text-anchor:start;fill:#429171;fill-opacity:1;stroke:#000000;stroke-width:0;stroke-miterlimit:4;stroke-dasharray:none"
                 d="M 313.14062 93.101562 L 313.14062 218.10742 L 318.09766 218.10742 L 318.09766 176.14258 L 348.56641 176.14258 C 352.64829 176.14258 356.34015 175.78409 359.64453 175.07031 L 377.20703 205.04102 C 378.70093 204.90027 380.35872 204.82666 382.88281 204.79297 L 364.60156 173.64062 C 372.47377 171.02143 378.49865 166.37988 382.67773 159.71289 C 386.954 152.9268 389.09375 144.53359 389.09375 134.5332 C 389.09375 121.55632 385.4966 111.43612 378.30469 104.17383 C 371.20999 96.792641 361.29801 93.101563 348.56641 93.101562 L 313.14062 93.101562 z M 318.09766 98.638672 L 348.85742 98.638672 C 360.22839 98.638672 368.97482 101.79362 375.09766 108.10352 C 381.22049 114.29431 384.28125 123.10402 384.28125 134.5332 C 384.28125 146.08128 381.22049 155.01042 375.09766 161.32031 C 368.97482 167.51111 360.22839 170.60742 348.85742 170.60742 L 318.09766 170.60742 L 318.09766 98.638672 z "
                 transform="matrix(0.03901504,0,0,0.03184945,32.769017,236.76276)"
                 id="path845" />
              <path
                 style="font-style:normal;font-variant:normal;font-stretch:normal;font-size:5.68767977px;font-family:Montserrat;-inkscape-font-specification:'Montserrat, weight=251';font-variant-ligatures:normal;font-variant-caps:normal;font-variant-numeric:normal;font-feature-settings:normal;text-align:start;letter-spacing:-0.54032958px;writing-mode:lr-tb;text-anchor:start;fill:#429171;fill-opacity:1;stroke:#000000;stroke-width:0;stroke-miterlimit:4;stroke-dasharray:none"
                 d="M 384.57227 93.103516 L 384.57227 98.638672 L 422.03711 98.638672 L 422.03711 204.7832 C 423.36797 204.80598 425.41877 204.822 426.84766 204.83984 L 426.84766 98.638672 L 464.31445 98.638672 L 464.31445 93.103516 L 384.57227 93.103516 z "
                 transform="matrix(0.03901504,0,0,0.03184945,32.769017,236.76276)"
                 id="path847" />
            </g>
            <g
               aria-label="GARDEN"
               transform="scale(0.95995205,1.0417187)"
               style="font-style:normal;font-variant:normal;font-weight:normal;font-stretch:condensed;font-size:7.21524906px;line-height:1.25;font-family:'Agency FB';-inkscape-font-specification:'Agency FB, Condensed';font-variant-ligatures:normal;font-variant-caps:normal;font-variant-numeric:normal;font-feature-settings:normal;text-align:start;letter-spacing:0.23081906px;word-spacing:0px;writing-mode:lr-tb;text-anchor:start;fill:url(#linearGradient6119);fill-opacity:1;stroke:none;stroke-width:0.60127068"
               id="text6095">
              <path
                 d="m 36.223851,264.46825 q 0,0.17263 -0.109215,0.28185 -0.109215,0.10921 -0.281845,0.10921 h -1.447982 q -0.172631,0 -0.281846,-0.10921 -0.109215,-0.10922 -0.109215,-0.28185 v -4.73148 q 0,-0.17263 0.109215,-0.28185 0.109215,-0.10921 0.281846,-0.10921 h 1.447982 q 0.17263,0 0.281845,0.10921 0.109215,0.10922 0.109215,0.28185 v 1.2824 h -0.493229 v -1.24012 h -1.247168 v 4.64693 h 1.247168 v -1.90599 h -0.588353 v -0.42276 h 1.081582 z"
                 style="font-style:normal;font-variant:normal;font-weight:normal;font-stretch:condensed;font-size:7.21524906px;font-family:'Agency FB';-inkscape-font-specification:'Agency FB, Condensed';font-variant-ligatures:normal;font-variant-caps:normal;font-variant-numeric:normal;font-feature-settings:normal;text-align:start;letter-spacing:0.23081906px;writing-mode:lr-tb;text-anchor:start;fill:url(#linearGradient6119);fill-opacity:1;stroke-width:0.60127068"
                 id="path850" />
              <path
                 d="m 39.547927,264.85931 h -0.486184 l -0.193769,-1.22602 h -1.095675 l -0.193769,1.22602 h -0.472092 v -0.0141 l 0.982937,-5.5136 h 0.482661 z m -0.743368,-1.65936 -0.482661,-2.98757 -0.486184,2.98757 z"
                 style="font-style:normal;font-variant:normal;font-weight:normal;font-stretch:condensed;font-size:7.21524906px;font-family:'Agency FB';-inkscape-font-specification:'Agency FB, Condensed';font-variant-ligatures:normal;font-variant-caps:normal;font-variant-numeric:normal;font-feature-settings:normal;text-align:start;letter-spacing:0.23081906px;writing-mode:lr-tb;text-anchor:start;fill:url(#linearGradient6119);fill-opacity:1;stroke-width:0.60127068"
                 id="path852" />
              <path
                 style="font-style:normal;font-variant:normal;font-weight:normal;font-stretch:condensed;font-size:7.21524906px;font-family:'Agency FB';-inkscape-font-specification:'Agency FB, Condensed';font-variant-ligatures:normal;font-variant-caps:normal;font-variant-numeric:normal;font-feature-settings:normal;text-align:start;letter-spacing:0.23081906px;writing-mode:lr-tb;text-anchor:start;fill:url(#linearGradient4517);fill-opacity:1;stroke-width:17.05701447"
                 d="M 261.48828 230.31445 L 261.48828 393.25195 L 274.82422 393.25195 L 274.82422 243.12109 L 304.00977 243.12109 C 307.38348 236.65905 310.24009 232.6848 312.24805 230.33398 C 312.08585 230.32762 311.92733 230.31445 311.76172 230.31445 L 261.48828 230.31445 z M 322.41016 247.27539 C 316.16006 254.41476 311.53003 266.90121 309.07422 278.43359 L 309.07422 303.08984 L 285.28125 303.08984 L 283.45898 306.00391 L 311.37695 393.25 L 325.38477 393.25 L 325.38477 393.24023 C 316.81405 367.14268 308.21086 341.11316 299.57617 315.1543 C 300.40766 315.1543 301.75061 315.22342 303.60547 315.36133 C 305.46025 315.44013 306.86864 315.48047 307.82812 315.48047 C 317.55015 315.48047 322.41016 311.55808 322.41016 303.71484 L 322.41016 247.27539 z "
                 transform="matrix(0.03672125,0,0,0.03383892,30.842446,251.55214)"
                 id="path854" />
              <path
                 d="m 46.034015,263.86228 q 0,0.43687 -0.288891,0.71871 -0.285369,0.27832 -0.72223,0.27832 h -1.261259 v -5.5136 h 1.261259 q 0.440384,0 0.725753,0.28184 0.285368,0.27833 0.285368,0.71519 z m -0.489706,-0.0493 v -3.42795 q 0,-0.27127 -0.172631,-0.43686 -0.169107,-0.1691 -0.440384,-0.1691 h -0.679952 v 4.64693 h 0.651768 q 0.285368,0 0.461522,-0.16207 0.179677,-0.16558 0.179677,-0.45095 z"
                 style="font-style:normal;font-variant:normal;font-weight:normal;font-stretch:condensed;font-size:7.21524906px;font-family:'Agency FB';-inkscape-font-specification:'Agency FB, Condensed';font-variant-ligatures:normal;font-variant-caps:normal;font-variant-numeric:normal;font-feature-settings:normal;text-align:start;letter-spacing:0.23081906px;writing-mode:lr-tb;text-anchor:start;fill:url(#linearGradient6119);fill-opacity:1;stroke-width:0.60127068"
                 id="path856" />
              <path
                 d="m 48.9318,264.85931 h -1.810859 v -5.5136 h 1.78972 v 0.43334 h -1.300013 v 2.05747 H 48.7944 v 0.44038 h -1.183752 v 2.14908 H 48.9318 Z"
                 style="font-style:normal;font-variant:normal;font-weight:normal;font-stretch:condensed;font-size:7.21524906px;font-family:'Agency FB';-inkscape-font-specification:'Agency FB, Condensed';font-variant-ligatures:normal;font-variant-caps:normal;font-variant-numeric:normal;font-feature-settings:normal;text-align:start;letter-spacing:0.23081906px;writing-mode:lr-tb;text-anchor:start;fill:url(#linearGradient6119);fill-opacity:1;stroke-width:0.60127068"
                 id="path858" />
              <path
                 d="m 52.203028,264.85931 h -0.338214 l -1.472644,-4.05505 v 4.05505 h -0.461522 v -5.5136 h 0.366399 l 1.444459,3.98459 v -3.98459 h 0.461522 z"
                 style="font-style:normal;font-variant:normal;font-weight:normal;font-stretch:condensed;font-size:7.21524906px;font-family:'Agency FB';-inkscape-font-specification:'Agency FB, Condensed';font-variant-ligatures:normal;font-variant-caps:normal;font-variant-numeric:normal;font-feature-settings:normal;text-align:start;letter-spacing:0.23081906px;writing-mode:lr-tb;text-anchor:start;fill:url(#linearGradient6119);fill-opacity:1;stroke-width:0.60127068"
                 id="path860" />
            </g>
            <path
               sodipodi:nodetypes="ccssccsccccc"
               inkscape:connector-curvature="0"
               d="m 46.468118,268.23249 c -0.0076,-0.0437 -0.01519,-0.0866 -0.02659,-0.12991 -0.321357,-1.57032 0.46251,-3.03272 1.620837,-3.61447 0.439757,-0.22069 1.136676,-0.35136 1.558884,-0.49654 1.146855,-0.39441 1.464185,-0.54566 1.88476,-1.06732 0.06268,-0.1113 0.142445,0.25336 0.0076,0.32098 -0.06609,0.12231 -0.225633,0.24007 -0.350605,0.31338 -0.86546,0.50619 -2.044261,0.7009 -2.748853,1.028 -0.458788,0.21499 -0.895734,0.54118 -1.241325,1.03985 -0.58338,1.00699 -0.565223,1.66015 -0.451571,2.60299 0.05736,0.66045 -0.0904,0.54342 -0.252983,0.004 z"
               id="path6099"
               style="opacity:1;fill:#000000;fill-opacity:1;stroke:#0000ff;stroke-width:0;stroke-linecap:butt;stroke-miterlimit:4;stroke-dasharray:none;stroke-opacity:1;paint-order:markers fill stroke"
               inkscape:export-filename="C:\Users\axel\Desktop\logo.png"
               inkscape:export-xdpi="400"
               inkscape:export-ydpi="400" />
            <path
               sodipodi:nodetypes="cccccccsscc"
               inkscape:connector-curvature="0"
               d="m 51.674095,263.12747 c 1.181803,5.61865 -1.093524,6.71214 -3.288169,6.78283 -0.04596,-0.002 -0.0923,-0.002 -0.137887,-0.008 -0.04444,-0.002 -0.08813,-0.0114 -0.132189,-0.0152 -0.04444,-0.008 -0.08851,-0.019 -0.13219,-0.0266 -0.05926,-0.0737 0.18461,-0.0403 0.276914,-0.0604 3.545559,-0.33199 4.11572,-3.95508 3.091747,-6.61827 -0.05318,-0.2074 0.02279,-0.38988 0.07825,-0.45678 0.01519,-0.0152 0.01899,-0.019 0.03039,-0.019 0.128391,0.004 0.215377,0.41799 0.215377,0.41799 z"
               id="path6101"
               style="opacity:1;fill:#000000;fill-opacity:0.98067633;stroke:#000000;stroke-width:0;stroke-linecap:butt;stroke-miterlimit:4;stroke-dasharray:none;stroke-opacity:0.99033813;paint-order:markers fill stroke"
               inkscape:export-filename="C:\Users\axel\Desktop\logo.png"
               inkscape:export-xdpi="400"
               inkscape:export-ydpi="400" />
            <path
               style="fill:#0a0a0a;stroke-width:0.00846015"
               d="m 40.218165,271.9121 c 0.02335,-0.49438 0.151966,-0.98017 0.349964,-1.32179 0.380759,-0.65695 1.042734,-0.9936 2.155653,-1.09628 0.376584,-0.0347 0.744509,-0.0396 2.021976,-0.0267 0.767389,0.008 0.972768,0.004 1.307094,-0.025 0.750017,-0.0647 1.292468,-0.23542 1.69143,-0.53234 0.11811,-0.0879 0.151655,-0.12028 0.222608,-0.21488 0.03352,-0.0447 0.06201,-0.0829 0.0633,-0.0848 0.0013,-0.002 0.0045,-0.001 0.0071,10e-4 0.0076,0.008 -0.03301,0.0818 -0.09689,0.17681 -0.329757,0.49051 -0.8827,0.75128 -1.781837,0.84032 -0.334778,0.0332 -0.365442,0.0338 -1.569359,0.0343 -1.198323,4.6e-4 -1.276486,0.002 -1.628579,0.0342 -0.785074,0.0716 -1.361667,0.26321 -1.789322,0.5945 -0.142766,0.11059 -0.326698,0.30381 -0.432228,0.45405 -0.212727,0.30284 -0.366557,0.70094 -0.442417,1.14494 -0.0114,0.0667 -0.02199,0.1224 -0.02354,0.12379 -0.0016,10e-4 -0.01581,0.005 -0.03168,0.009 l -0.02886,0.006 z"
               id="path5075"
               inkscape:connector-curvature="0"
               sodipodi:nodetypes="ssssssccsssssssscccs" />
          </g>
        </g>
      </g>
    </g>
  </g>
</svg>
