<?xml version="1.0" encoding="UTF-8" standalone="no"?>
<!-- Created with Inkscape (http://www.inkscape.org/) -->

<svg
   xmlns:dc="http://purl.org/dc/elements/1.1/"
   xmlns:cc="http://creativecommons.org/ns#"
   xmlns:rdf="http://www.w3.org/1999/02/22-rdf-syntax-ns#"
   xmlns:svg="http://www.w3.org/2000/svg"
   xmlns="http://www.w3.org/2000/svg"
   xmlns:xlink="http://www.w3.org/1999/xlink"
   xmlns:sodipodi="http://sodipodi.sourceforge.net/DTD/sodipodi-0.dtd"
   xmlns:inkscape="http://www.inkscape.org/namespaces/inkscape"
   width="171.96411mm"
   height="110.09762mm"
   viewBox="0 0 171.96412 110.09762"
   version="1.1"
   id="svg7008"
   inkscape:version="0.92.3 (2405546, 2018-03-11)"
   sodipodi:docname="smart-garden-logo1.svg"
   inkscape:export-filename="C:\Users\Emmi Isenstierna\Downloads\smart-garden-logo.png"
   inkscape:export-xdpi="400"
   inkscape:export-ydpi="400">
  <defs
     id="defs7002">
    <linearGradient
       inkscape:collect="always"
       xlink:href="#linearGradient6607"
       id="linearGradient6119"
       gradientUnits="userSpaceOnUse"
       gradientTransform="matrix(1.9826977,0,0,1.9826977,-15.51581,-97.638832)"
       x1="28.320499"
       y1="182.82574"
       x2="28.332682"
       y2="180.03079" />
    <linearGradient
       inkscape:collect="always"
       id="linearGradient6607">
      <stop
         style="stop-color:#00b080;stop-opacity:1;"
         offset="0"
         id="stop6603" />
      <stop
         style="stop-color:#00b0ab;stop-opacity:0.65098041"
         offset="1"
         id="stop6605" />
    </linearGradient>
  </defs>
  <sodipodi:namedview
     id="base"
     pagecolor="#ffffff"
     bordercolor="#666666"
     borderopacity="1.0"
     inkscape:pageopacity="0.0"
     inkscape:pageshadow="2"
     inkscape:zoom="0.64"
     inkscape:cx="547.1688"
     inkscape:cy="183.8183"
     inkscape:document-units="mm"
     inkscape:current-layer="g6968"
     showgrid="false"
     fit-margin-right="0"
     fit-margin-top="0"
     fit-margin-left="0"
     fit-margin-bottom="0"
     inkscape:window-width="1920"
     inkscape:window-height="1001"
     inkscape:window-x="-9"
     inkscape:window-y="-9"
     inkscape:window-maximized="1"
     inkscape:snap-page="true"
     showborder="true"
     inkscape:snap-nodes="false"
     inkscape:snap-global="false" />
  <metadata
     id="metadata7005">
    <rdf:RDF>
      <cc:Work
         rdf:about="">
        <dc:format>image/svg+xml</dc:format>
        <dc:type
           rdf:resource="http://purl.org/dc/dcmitype/StillImage" />
        <dc:title></dc:title>
      </cc:Work>
    </rdf:RDF>
  </metadata>
  <g
     inkscape:label="Layer 1"
     inkscape:groupmode="layer"
     id="layer1"
     transform="translate(193.44626,-82.64874)">
    <rect
       style="opacity:1;fill:none;fill-opacity:1;fill-rule:nonzero;stroke:none;stroke-width:0;stroke-linecap:butt;stroke-linejoin:round;stroke-miterlimit:4;stroke-dasharray:none;stroke-dashoffset:0;stroke-opacity:1;paint-order:normal"
       id="rect7595"
       width="208.64285"
       height="208.64285"
       x="-215.78563"
       y="42.384052"
       inkscape:export-xdpi="400"
       inkscape:export-ydpi="400" />
    <g
       id="g837">
      <g
         inkscape:export-ydpi="400"
         inkscape:export-xdpi="400"
         transform="matrix(7.5057743,0,0,7.5057743,-413.18936,-1575.6567)"
         id="g6968">
        <g
           id="g6129"
           inkscape:export-xdpi="400"
           inkscape:export-ydpi="400"
           transform="translate(-0.33072917,-15.478125)">
          <g
             transform="translate(0,-25.631148)"
             id="g6105">
            <g
               aria-label="SMART"
               transform="scale(0.90351409,1.1067896)"
               style="font-style:normal;font-variant:normal;font-weight:normal;font-stretch:normal;font-size:5.68767977px;line-height:1.25;font-family:Montserrat;-inkscape-font-specification:'Montserrat, weight=251';font-variant-ligatures:normal;font-variant-caps:normal;font-variant-numeric:normal;font-feature-settings:normal;text-align:start;letter-spacing:-0.54032958px;word-spacing:0px;writing-mode:lr-tb;text-anchor:start;fill:#429171;fill-opacity:1;stroke:#000000;stroke-width:0;stroke-miterlimit:4;stroke-dasharray:none"
               id="text6091">
              <path
                 d="m 34.794419,243.73216 q -0.432263,0 -0.824713,-0.15357 -0.386762,-0.15356 -0.597206,-0.39813 l 0.102378,-0.13651 q 0.199069,0.22751 0.551705,0.37539 0.358324,0.14219 0.762149,0.14219 0.597206,0 0.898653,-0.23319 0.307135,-0.23889 0.307135,-0.60858 0,-0.28439 -0.159255,-0.45502 -0.159255,-0.17632 -0.39245,-0.26163 -0.233195,-0.091 -0.63702,-0.1877 -0.432264,-0.10806 -0.693897,-0.21044 -0.261633,-0.10238 -0.443639,-0.31282 -0.182006,-0.21045 -0.182006,-0.56308 0,-0.2787 0.14788,-0.51189 0.147879,-0.2332 0.449326,-0.3697 0.307135,-0.14219 0.76215,-0.14219 0.324197,0 0.63702,0.0967 0.31851,0.0967 0.540329,0.26732 l -0.08532,0.15356 q -0.233195,-0.17063 -0.523266,-0.25594 -0.284384,-0.091 -0.563081,-0.091 -0.580143,0 -0.88159,0.24457 -0.295759,0.23888 -0.295759,0.60858 0,0.29007 0.159255,0.46639 0.164942,0.17063 0.398137,0.26163 0.238883,0.091 0.63702,0.18769 0.432264,0.10807 0.693897,0.21045 0.261633,0.0967 0.437952,0.30713 0.182005,0.20476 0.182005,0.55171 0,0.27869 -0.153567,0.51189 -0.14788,0.23319 -0.460702,0.3697 -0.312822,0.1365 -0.773525,0.1365 z"
                 style="font-style:normal;font-variant:normal;font-stretch:normal;font-size:5.68767977px;font-family:Montserrat;-inkscape-font-specification:'Montserrat, weight=251';font-variant-ligatures:normal;font-variant-caps:normal;font-variant-numeric:normal;font-feature-settings:normal;text-align:start;letter-spacing:-0.54032958px;writing-mode:lr-tb;text-anchor:start;fill:#429171;fill-opacity:1;stroke:#000000;stroke-width:0;stroke-miterlimit:4;stroke-dasharray:none"
                 id="path839" />
              <path
                 d="m 40.473656,243.70941 -0.0057,-3.58892 -1.746118,3.03722 h -0.102378 l -1.751806,-3.02585 v 3.57755 h -0.187693 v -3.98137 h 0.159255 l 1.831433,3.1851 1.825745,-3.1851 h 0.159255 l 0.0057,3.98137 z"
                 style="font-style:normal;font-variant:normal;font-stretch:normal;font-size:5.68767977px;font-family:Montserrat;-inkscape-font-specification:'Montserrat, weight=251';font-variant-ligatures:normal;font-variant-caps:normal;font-variant-numeric:normal;font-feature-settings:normal;text-align:start;letter-spacing:-0.54032958px;writing-mode:lr-tb;text-anchor:start;fill:#429171;fill-opacity:1;stroke:#000000;stroke-width:0;stroke-miterlimit:4;stroke-dasharray:none"
                 id="path841" />
              <path
                 d="M 44.011838,242.54344 H 41.6287 l -0.534642,1.16597 h -0.210444 l 1.842808,-3.98137 h 0.187694 l 1.842808,3.98137 H 44.54648 Z m -0.07394,-0.16495 -1.114785,-2.42863 -1.120473,2.42863 z"
                 style="font-style:normal;font-variant:normal;font-stretch:normal;font-size:5.68767977px;font-family:Montserrat;-inkscape-font-specification:'Montserrat, weight=251';font-variant-ligatures:normal;font-variant-caps:normal;font-variant-numeric:normal;font-feature-settings:normal;text-align:start;letter-spacing:-0.54032958px;writing-mode:lr-tb;text-anchor:start;fill:#429171;fill-opacity:1;stroke:#000000;stroke-width:0;stroke-miterlimit:4;stroke-dasharray:none"
                 id="path843" />
              <path
                 d="m 47.784547,243.70941 -0.983969,-1.37073 q -0.193381,0.0341 -0.432263,0.0341 H 45.17959 v 1.3366 h -0.193382 v -3.98137 h 1.382107 q 0.745086,0 1.160286,0.35263 0.420889,0.34695 0.420889,0.96691 0,0.47776 -0.250258,0.80196 -0.244571,0.31851 -0.705273,0.44364 l 1.018095,1.41623 z m -1.404857,-1.51292 q 0.665458,0 1.023782,-0.29576 0.358324,-0.30145 0.358324,-0.85315 0,-0.54602 -0.358324,-0.84178 -0.358324,-0.30145 -1.023782,-0.30145 h -1.2001 v 2.29214 z"
                 style="font-style:normal;font-variant:normal;font-stretch:normal;font-size:5.68767977px;font-family:Montserrat;-inkscape-font-specification:'Montserrat, weight=251';font-variant-ligatures:normal;font-variant-caps:normal;font-variant-numeric:normal;font-feature-settings:normal;text-align:start;letter-spacing:-0.54032958px;writing-mode:lr-tb;text-anchor:start;fill:#429171;fill-opacity:1;stroke:#000000;stroke-width:0;stroke-miterlimit:4;stroke-dasharray:none"
                 id="path845" />
              <path
                 d="m 49.234816,239.90435 h -1.461733 v -0.17631 h 3.11116 v 0.17631 H 49.42251 v 3.80506 h -0.187694 z"
                 style="font-style:normal;font-variant:normal;font-stretch:normal;font-size:5.68767977px;font-family:Montserrat;-inkscape-font-specification:'Montserrat, weight=251';font-variant-ligatures:normal;font-variant-caps:normal;font-variant-numeric:normal;font-feature-settings:normal;text-align:start;letter-spacing:-0.54032958px;writing-mode:lr-tb;text-anchor:start;fill:#429171;fill-opacity:1;stroke:#000000;stroke-width:0;stroke-miterlimit:4;stroke-dasharray:none"
                 id="path847" />
            </g>
            <g
               aria-label="GARDEN"
               transform="scale(0.95995205,1.0417187)"
               style="font-style:normal;font-variant:normal;font-weight:normal;font-stretch:condensed;font-size:7.21524906px;line-height:1.25;font-family:'Agency FB';-inkscape-font-specification:'Agency FB, Condensed';font-variant-ligatures:normal;font-variant-caps:normal;font-variant-numeric:normal;font-feature-settings:normal;text-align:start;letter-spacing:0.23081906px;word-spacing:0px;writing-mode:lr-tb;text-anchor:start;fill:url(#linearGradient6119);fill-opacity:1;stroke:none;stroke-width:0.60127068"
               id="text6095">
              <path
                 d="m 36.223851,264.46825 q 0,0.17263 -0.109215,0.28185 -0.109215,0.10921 -0.281845,0.10921 h -1.447982 q -0.172631,0 -0.281846,-0.10921 -0.109215,-0.10922 -0.109215,-0.28185 v -4.73148 q 0,-0.17263 0.109215,-0.28185 0.109215,-0.10921 0.281846,-0.10921 h 1.447982 q 0.17263,0 0.281845,0.10921 0.109215,0.10922 0.109215,0.28185 v 1.2824 h -0.493229 v -1.24012 h -1.247168 v 4.64693 h 1.247168 v -1.90599 h -0.588353 v -0.42276 h 1.081582 z"
                 style="font-style:normal;font-variant:normal;font-weight:normal;font-stretch:condensed;font-size:7.21524906px;font-family:'Agency FB';-inkscape-font-specification:'Agency FB, Condensed';font-variant-ligatures:normal;font-variant-caps:normal;font-variant-numeric:normal;font-feature-settings:normal;text-align:start;letter-spacing:0.23081906px;writing-mode:lr-tb;text-anchor:start;fill:url(#linearGradient6119);fill-opacity:1;stroke-width:0.60127068"
                 id="path850" />
              <path
                 d="m 39.547927,264.85931 h -0.486184 l -0.193769,-1.22602 h -1.095675 l -0.193769,1.22602 h -0.472092 v -0.0141 l 0.982937,-5.5136 h 0.482661 z m -0.743368,-1.65936 -0.482661,-2.98757 -0.486184,2.98757 z"
                 style="font-style:normal;font-variant:normal;font-weight:normal;font-stretch:condensed;font-size:7.21524906px;font-family:'Agency FB';-inkscape-font-specification:'Agency FB, Condensed';font-variant-ligatures:normal;font-variant-caps:normal;font-variant-numeric:normal;font-feature-settings:normal;text-align:start;letter-spacing:0.23081906px;writing-mode:lr-tb;text-anchor:start;fill:url(#linearGradient6119);fill-opacity:1;stroke-width:0.60127068"
                 id="path852" />
              <path
                 d="m 42.790971,264.85931 h -0.514368 l -1.025214,-2.95233 0.06694,-0.0986 h 0.873721 v -2.02928 h -1.257736 v 5.08026 h -0.489707 v -5.5136 h 1.846089 q 0.172631,0 0.281846,0.10921 0.109215,0.10922 0.109215,0.28185 v 2.0927 q 0,0.39811 -0.535507,0.39811 -0.05285,0 -0.155015,-0.004 -0.102169,-0.007 -0.147969,-0.007 0.475615,1.31763 0.947706,2.6423 z"
                 style="font-style:normal;font-variant:normal;font-weight:normal;font-stretch:condensed;font-size:7.21524906px;font-family:'Agency FB';-inkscape-font-specification:'Agency FB, Condensed';font-variant-ligatures:normal;font-variant-caps:normal;font-variant-numeric:normal;font-feature-settings:normal;text-align:start;letter-spacing:0.23081906px;writing-mode:lr-tb;text-anchor:start;fill:url(#linearGradient6119);fill-opacity:1;stroke-width:0.60127068"
                 id="path854" />
              <path
                 d="m 46.034015,263.86228 q 0,0.43687 -0.288891,0.71871 -0.285369,0.27832 -0.72223,0.27832 h -1.261259 v -5.5136 h 1.261259 q 0.440384,0 0.725753,0.28184 0.285368,0.27833 0.285368,0.71519 z m -0.489706,-0.0493 v -3.42795 q 0,-0.27127 -0.172631,-0.43686 -0.169107,-0.1691 -0.440384,-0.1691 h -0.679952 v 4.64693 h 0.651768 q 0.285368,0 0.461522,-0.16207 0.179677,-0.16558 0.179677,-0.45095 z"
                 style="font-style:normal;font-variant:normal;font-weight:normal;font-stretch:condensed;font-size:7.21524906px;font-family:'Agency FB';-inkscape-font-specification:'Agency FB, Condensed';font-variant-ligatures:normal;font-variant-caps:normal;font-variant-numeric:normal;font-feature-settings:normal;text-align:start;letter-spacing:0.23081906px;writing-mode:lr-tb;text-anchor:start;fill:url(#linearGradient6119);fill-opacity:1;stroke-width:0.60127068"
                 id="path856" />
              <path
                 d="m 48.9318,264.85931 h -1.810859 v -5.5136 h 1.78972 v 0.43334 h -1.300013 v 2.05747 H 48.7944 v 0.44038 h -1.183752 v 2.14908 H 48.9318 Z"
                 style="font-style:normal;font-variant:normal;font-weight:normal;font-stretch:condensed;font-size:7.21524906px;font-family:'Agency FB';-inkscape-font-specification:'Agency FB, Condensed';font-variant-ligatures:normal;font-variant-caps:normal;font-variant-numeric:normal;font-feature-settings:normal;text-align:start;letter-spacing:0.23081906px;writing-mode:lr-tb;text-anchor:start;fill:url(#linearGradient6119);fill-opacity:1;stroke-width:0.60127068"
                 id="path858" />
              <path
                 d="m 52.203028,264.85931 h -0.338214 l -1.472644,-4.05505 v 4.05505 h -0.461522 v -5.5136 h 0.366399 l 1.444459,3.98459 v -3.98459 h 0.461522 z"
                 style="font-style:normal;font-variant:normal;font-weight:normal;font-stretch:condensed;font-size:7.21524906px;font-family:'Agency FB';-inkscape-font-specification:'Agency FB, Condensed';font-variant-ligatures:normal;font-variant-caps:normal;font-variant-numeric:normal;font-feature-settings:normal;text-align:start;letter-spacing:0.23081906px;writing-mode:lr-tb;text-anchor:start;fill:url(#linearGradient6119);fill-opacity:1;stroke-width:0.60127068"
                 id="path860" />
            </g>
            <path
               style="opacity:1;fill:#000000;fill-opacity:1;fill-rule:nonzero;stroke:#ffffff;stroke-width:0.198;stroke-linecap:butt;stroke-linejoin:bevel;stroke-miterlimit:4;stroke-dasharray:none;stroke-dashoffset:0;stroke-opacity:1;paint-order:normal"
               id="path6097"
               d="m 40.117679,272.13526 c -0.0038,-0.0266 -0.0114,-0.0528 -0.01519,-0.079 0.153841,-4.51863 5.694279,-1.57389 7.698504,-3.32346 0.06875,-0.0661 0.173593,-0.21728 0.208919,-0.28793 0.583266,-0.56587 0.06799,0.14511 0.151182,0.17891 -1.288579,2.68079 -7.25434,-0.79575 -7.788149,3.47138 0.002,0.019 -0.252603,0.0551 -0.255262,0.038 z"
               inkscape:connector-curvature="0"
               sodipodi:nodetypes="cccccccc"
               inkscape:export-filename="C:\Users\axel\Desktop\logo.png"
               inkscape:export-xdpi="400"
               inkscape:export-ydpi="400" />
            <path
               sodipodi:nodetypes="ccssccsccccc"
               inkscape:connector-curvature="0"
               d="m 46.468118,268.23249 c -0.0076,-0.0437 -0.01519,-0.0866 -0.02659,-0.12991 -0.321357,-1.57032 0.46251,-3.03272 1.620837,-3.61447 0.439757,-0.22069 1.136676,-0.35136 1.558884,-0.49654 1.146855,-0.39441 1.464185,-0.54566 1.88476,-1.06732 0.06268,-0.1113 0.142445,0.25336 0.0076,0.32098 -0.06609,0.12231 -0.225633,0.24007 -0.350605,0.31338 -0.86546,0.50619 -2.044261,0.7009 -2.748853,1.028 -0.458788,0.21499 -0.895734,0.54118 -1.241325,1.03985 -0.58338,1.00699 -0.565223,1.66015 -0.451571,2.60299 0.05736,0.66045 -0.0904,0.54342 -0.252983,0.004 z"
               id="path6099"
               style="opacity:1;fill:#000000;fill-opacity:1;stroke:#0000ff;stroke-width:0;stroke-linecap:butt;stroke-miterlimit:4;stroke-dasharray:none;stroke-opacity:1;paint-order:markers fill stroke"
               inkscape:export-filename="C:\Users\axel\Desktop\logo.png"
               inkscape:export-xdpi="400"
               inkscape:export-ydpi="400" />
            <path
               sodipodi:nodetypes="cccccccsscc"
               inkscape:connector-curvature="0"
               d="m 51.674095,263.12747 c 1.181803,5.61865 -1.093524,6.71214 -3.288169,6.78283 -0.04596,-0.002 -0.0923,-0.002 -0.137887,-0.008 -0.04444,-0.002 -0.08813,-0.0114 -0.132189,-0.0152 -0.04444,-0.008 -0.08851,-0.019 -0.13219,-0.0266 -0.05926,-0.0737 0.18461,-0.0403 0.276914,-0.0604 3.545559,-0.33199 4.11572,-3.95508 3.091747,-6.61827 -0.05318,-0.2074 0.02279,-0.38988 0.07825,-0.45678 0.01519,-0.0152 0.01899,-0.019 0.03039,-0.019 0.128391,0.004 0.215377,0.41799 0.215377,0.41799 z"
               id="path6101"
               style="opacity:1;fill:#000000;fill-opacity:0.98067633;stroke:#000000;stroke-width:0;stroke-linecap:butt;stroke-miterlimit:4;stroke-dasharray:none;stroke-opacity:0.99033813;paint-order:markers fill stroke"
               inkscape:export-filename="C:\Users\axel\Desktop\logo.png"
               inkscape:export-xdpi="400"
               inkscape:export-ydpi="400" />
          </g>
        </g>
      </g>
    </g>
  </g>
</svg>
